<mxfile host="Electron" modified="2023-12-23T00:46:41.704Z" agent="Mozilla/5.0 (Windows NT 10.0; Win64; x64) AppleWebKit/537.36 (KHTML, like Gecko) draw.io/22.1.11 Chrome/114.0.5735.289 Electron/25.9.8 Safari/537.36" etag="Cp72XvvUI1KBRv2uUxka" version="22.1.11" type="device">
  <diagram name="Страница — 1" id="V03YEPtMUJDfRyJzm7gv">
    <mxGraphModel dx="1100" dy="1230" grid="1" gridSize="10" guides="1" tooltips="1" connect="1" arrows="1" fold="1" page="1" pageScale="1" pageWidth="827" pageHeight="1169" math="0" shadow="0">
      <root>
        <mxCell id="0" />
        <mxCell id="1" parent="0" />
        <mxCell id="pUPCnBWJQkNpI-wUYaOx-3" style="edgeStyle=orthogonalEdgeStyle;rounded=0;orthogonalLoop=1;jettySize=auto;html=1;entryX=0.5;entryY=0;entryDx=0;entryDy=0;" edge="1" parent="1" source="pUPCnBWJQkNpI-wUYaOx-1" target="pUPCnBWJQkNpI-wUYaOx-2">
          <mxGeometry relative="1" as="geometry" />
        </mxCell>
        <mxCell id="pUPCnBWJQkNpI-wUYaOx-1" value="Начало&lt;br&gt;removeNode" style="ellipse;whiteSpace=wrap;html=1;" vertex="1" parent="1">
          <mxGeometry x="354" y="20" width="120" height="80" as="geometry" />
        </mxCell>
        <mxCell id="pUPCnBWJQkNpI-wUYaOx-5" value="True" style="edgeStyle=orthogonalEdgeStyle;rounded=0;orthogonalLoop=1;jettySize=auto;html=1;entryX=0;entryY=0.5;entryDx=0;entryDy=0;" edge="1" parent="1" source="pUPCnBWJQkNpI-wUYaOx-2" target="pUPCnBWJQkNpI-wUYaOx-4">
          <mxGeometry relative="1" as="geometry" />
        </mxCell>
        <mxCell id="pUPCnBWJQkNpI-wUYaOx-7" style="edgeStyle=orthogonalEdgeStyle;rounded=0;orthogonalLoop=1;jettySize=auto;html=1;" edge="1" parent="1" source="pUPCnBWJQkNpI-wUYaOx-2" target="pUPCnBWJQkNpI-wUYaOx-6">
          <mxGeometry relative="1" as="geometry" />
        </mxCell>
        <mxCell id="pUPCnBWJQkNpI-wUYaOx-2" value="Узла не существует" style="rhombus;whiteSpace=wrap;html=1;" vertex="1" parent="1">
          <mxGeometry x="374" y="120" width="80" height="80" as="geometry" />
        </mxCell>
        <mxCell id="pUPCnBWJQkNpI-wUYaOx-4" value="return NULL" style="rounded=0;whiteSpace=wrap;html=1;" vertex="1" parent="1">
          <mxGeometry x="500" y="130" width="120" height="60" as="geometry" />
        </mxCell>
        <mxCell id="pUPCnBWJQkNpI-wUYaOx-9" value="True" style="edgeStyle=orthogonalEdgeStyle;rounded=0;orthogonalLoop=1;jettySize=auto;html=1;entryX=0;entryY=0.5;entryDx=0;entryDy=0;" edge="1" parent="1" source="pUPCnBWJQkNpI-wUYaOx-6" target="pUPCnBWJQkNpI-wUYaOx-8">
          <mxGeometry relative="1" as="geometry" />
        </mxCell>
        <mxCell id="pUPCnBWJQkNpI-wUYaOx-11" style="edgeStyle=orthogonalEdgeStyle;rounded=0;orthogonalLoop=1;jettySize=auto;html=1;entryX=0.5;entryY=0;entryDx=0;entryDy=0;" edge="1" parent="1" source="pUPCnBWJQkNpI-wUYaOx-6" target="pUPCnBWJQkNpI-wUYaOx-10">
          <mxGeometry relative="1" as="geometry" />
        </mxCell>
        <mxCell id="pUPCnBWJQkNpI-wUYaOx-6" value="&lt;div style=&quot;font-size: 14px; line-height: 19px;&quot;&gt;&lt;span style=&quot;background-color: rgb(255, 255, 255);&quot;&gt;number &amp;lt; p-&amp;gt;student.number&lt;/span&gt;&lt;/div&gt;" style="rhombus;whiteSpace=wrap;html=1;" vertex="1" parent="1">
          <mxGeometry x="374" y="220" width="80" height="80" as="geometry" />
        </mxCell>
        <mxCell id="pUPCnBWJQkNpI-wUYaOx-37" style="edgeStyle=orthogonalEdgeStyle;rounded=0;orthogonalLoop=1;jettySize=auto;html=1;entryX=1;entryY=0.5;entryDx=0;entryDy=0;" edge="1" parent="1" source="pUPCnBWJQkNpI-wUYaOx-8" target="pUPCnBWJQkNpI-wUYaOx-33">
          <mxGeometry relative="1" as="geometry">
            <Array as="points">
              <mxPoint x="730" y="260" />
              <mxPoint x="730" y="820" />
            </Array>
          </mxGeometry>
        </mxCell>
        <mxCell id="pUPCnBWJQkNpI-wUYaOx-8" value="&lt;div style=&quot;font-size: 14px; line-height: 19px;&quot;&gt;&lt;span style=&quot;background-color: rgb(255, 255, 255);&quot;&gt;p-&amp;gt;left = removeNode(p-&amp;gt;left, number)&lt;/span&gt;&lt;/div&gt;" style="rounded=0;whiteSpace=wrap;html=1;" vertex="1" parent="1">
          <mxGeometry x="500" y="230" width="120" height="60" as="geometry" />
        </mxCell>
        <mxCell id="pUPCnBWJQkNpI-wUYaOx-13" value="True" style="edgeStyle=orthogonalEdgeStyle;rounded=0;orthogonalLoop=1;jettySize=auto;html=1;entryX=0;entryY=0.5;entryDx=0;entryDy=0;" edge="1" parent="1" source="pUPCnBWJQkNpI-wUYaOx-10" target="pUPCnBWJQkNpI-wUYaOx-12">
          <mxGeometry relative="1" as="geometry" />
        </mxCell>
        <mxCell id="pUPCnBWJQkNpI-wUYaOx-15" style="edgeStyle=orthogonalEdgeStyle;rounded=0;orthogonalLoop=1;jettySize=auto;html=1;entryX=0.5;entryY=0;entryDx=0;entryDy=0;" edge="1" parent="1" source="pUPCnBWJQkNpI-wUYaOx-10" target="pUPCnBWJQkNpI-wUYaOx-14">
          <mxGeometry relative="1" as="geometry" />
        </mxCell>
        <mxCell id="pUPCnBWJQkNpI-wUYaOx-10" value="&lt;div style=&quot;font-size: 14px; line-height: 19px;&quot;&gt;&lt;div style=&quot;line-height: 19px;&quot;&gt;&lt;font style=&quot;background-color: rgb(255, 255, 255);&quot; face=&quot;Helvetica&quot;&gt;number &amp;gt; p-&amp;gt;student.number&lt;/font&gt;&lt;/div&gt;&lt;/div&gt;" style="rhombus;whiteSpace=wrap;html=1;" vertex="1" parent="1">
          <mxGeometry x="374" y="320" width="80" height="80" as="geometry" />
        </mxCell>
        <mxCell id="pUPCnBWJQkNpI-wUYaOx-38" style="edgeStyle=orthogonalEdgeStyle;rounded=0;orthogonalLoop=1;jettySize=auto;html=1;" edge="1" parent="1" source="pUPCnBWJQkNpI-wUYaOx-12">
          <mxGeometry relative="1" as="geometry">
            <mxPoint x="730" y="360" as="targetPoint" />
          </mxGeometry>
        </mxCell>
        <mxCell id="pUPCnBWJQkNpI-wUYaOx-12" value="&lt;font style=&quot;font-size: 14px;&quot;&gt;p-&amp;gt;right = removeNode(p-&amp;gt;right, number)&lt;/font&gt;" style="rounded=0;whiteSpace=wrap;html=1;" vertex="1" parent="1">
          <mxGeometry x="500" y="330" width="120" height="60" as="geometry" />
        </mxCell>
        <mxCell id="pUPCnBWJQkNpI-wUYaOx-17" style="edgeStyle=orthogonalEdgeStyle;rounded=0;orthogonalLoop=1;jettySize=auto;html=1;entryX=0.5;entryY=0;entryDx=0;entryDy=0;" edge="1" parent="1" source="pUPCnBWJQkNpI-wUYaOx-14" target="pUPCnBWJQkNpI-wUYaOx-16">
          <mxGeometry relative="1" as="geometry" />
        </mxCell>
        <mxCell id="pUPCnBWJQkNpI-wUYaOx-14" value="q = p-&amp;gt;left&lt;br&gt;r = p-&amp;gt;right" style="rounded=0;whiteSpace=wrap;html=1;" vertex="1" parent="1">
          <mxGeometry x="354" y="420" width="120" height="60" as="geometry" />
        </mxCell>
        <mxCell id="pUPCnBWJQkNpI-wUYaOx-19" value="True" style="edgeStyle=orthogonalEdgeStyle;rounded=0;orthogonalLoop=1;jettySize=auto;html=1;entryX=0;entryY=0.5;entryDx=0;entryDy=0;" edge="1" parent="1" source="pUPCnBWJQkNpI-wUYaOx-16" target="pUPCnBWJQkNpI-wUYaOx-18">
          <mxGeometry relative="1" as="geometry" />
        </mxCell>
        <mxCell id="pUPCnBWJQkNpI-wUYaOx-21" style="edgeStyle=orthogonalEdgeStyle;rounded=0;orthogonalLoop=1;jettySize=auto;html=1;entryX=0.5;entryY=0;entryDx=0;entryDy=0;" edge="1" parent="1" source="pUPCnBWJQkNpI-wUYaOx-16">
          <mxGeometry relative="1" as="geometry">
            <mxPoint x="414" y="610" as="targetPoint" />
          </mxGeometry>
        </mxCell>
        <mxCell id="pUPCnBWJQkNpI-wUYaOx-16" value="!r" style="rhombus;whiteSpace=wrap;html=1;" vertex="1" parent="1">
          <mxGeometry x="374" y="504.5" width="80" height="80" as="geometry" />
        </mxCell>
        <mxCell id="pUPCnBWJQkNpI-wUYaOx-18" value="return q" style="rounded=0;whiteSpace=wrap;html=1;" vertex="1" parent="1">
          <mxGeometry x="500" y="514.5" width="120" height="60" as="geometry" />
        </mxCell>
        <mxCell id="pUPCnBWJQkNpI-wUYaOx-24" style="edgeStyle=orthogonalEdgeStyle;rounded=0;orthogonalLoop=1;jettySize=auto;html=1;entryX=0.5;entryY=0;entryDx=0;entryDy=0;" edge="1" parent="1" source="pUPCnBWJQkNpI-wUYaOx-22" target="pUPCnBWJQkNpI-wUYaOx-23">
          <mxGeometry relative="1" as="geometry" />
        </mxCell>
        <mxCell id="pUPCnBWJQkNpI-wUYaOx-22" value="&lt;font style=&quot;font-size: 14px;&quot;&gt;min = findMin(r)&lt;br&gt;&lt;/font&gt;" style="rounded=0;whiteSpace=wrap;html=1;" vertex="1" parent="1">
          <mxGeometry x="354" y="610" width="120" height="60" as="geometry" />
        </mxCell>
        <mxCell id="pUPCnBWJQkNpI-wUYaOx-26" style="edgeStyle=orthogonalEdgeStyle;rounded=0;orthogonalLoop=1;jettySize=auto;html=1;entryX=0.5;entryY=0;entryDx=0;entryDy=0;" edge="1" parent="1" source="pUPCnBWJQkNpI-wUYaOx-23" target="pUPCnBWJQkNpI-wUYaOx-25">
          <mxGeometry relative="1" as="geometry" />
        </mxCell>
        <mxCell id="pUPCnBWJQkNpI-wUYaOx-23" value="&lt;div style=&quot;border-color: var(--border-color); font-size: 14px;&quot;&gt;&lt;font style=&quot;border-color: var(--border-color); background-color: rgb(255, 255, 255);&quot; face=&quot;Helvetica&quot;&gt;min-&amp;gt;right = removeMin(r)&lt;/font&gt;&lt;/div&gt;&lt;div style=&quot;border-color: var(--border-color); font-size: 14px;&quot;&gt;&lt;span style=&quot;background-color: rgb(255, 255, 255);&quot;&gt;min-&amp;gt;left = q&lt;/span&gt;&lt;/div&gt;" style="rounded=0;whiteSpace=wrap;html=1;" vertex="1" parent="1">
          <mxGeometry x="354" y="700" width="120" height="60" as="geometry" />
        </mxCell>
        <mxCell id="pUPCnBWJQkNpI-wUYaOx-35" style="edgeStyle=orthogonalEdgeStyle;rounded=0;orthogonalLoop=1;jettySize=auto;html=1;entryX=0.5;entryY=0;entryDx=0;entryDy=0;" edge="1" parent="1" source="pUPCnBWJQkNpI-wUYaOx-25" target="pUPCnBWJQkNpI-wUYaOx-34">
          <mxGeometry relative="1" as="geometry" />
        </mxCell>
        <mxCell id="pUPCnBWJQkNpI-wUYaOx-25" value="return balance(min)" style="rounded=0;whiteSpace=wrap;html=1;" vertex="1" parent="1">
          <mxGeometry x="354" y="790" width="120" height="60" as="geometry" />
        </mxCell>
        <mxCell id="pUPCnBWJQkNpI-wUYaOx-36" style="edgeStyle=orthogonalEdgeStyle;rounded=0;orthogonalLoop=1;jettySize=auto;html=1;entryX=1;entryY=0.5;entryDx=0;entryDy=0;" edge="1" parent="1" source="pUPCnBWJQkNpI-wUYaOx-33" target="pUPCnBWJQkNpI-wUYaOx-34">
          <mxGeometry relative="1" as="geometry">
            <Array as="points">
              <mxPoint x="560" y="930" />
            </Array>
          </mxGeometry>
        </mxCell>
        <mxCell id="pUPCnBWJQkNpI-wUYaOx-33" value="return balance(p)" style="rounded=0;whiteSpace=wrap;html=1;" vertex="1" parent="1">
          <mxGeometry x="500" y="790" width="120" height="60" as="geometry" />
        </mxCell>
        <mxCell id="pUPCnBWJQkNpI-wUYaOx-34" value="Конец" style="ellipse;whiteSpace=wrap;html=1;" vertex="1" parent="1">
          <mxGeometry x="354" y="890" width="120" height="80" as="geometry" />
        </mxCell>
      </root>
    </mxGraphModel>
  </diagram>
</mxfile>
